PathFileType	4	(X/Y/Z)	./resultDataOpenSim/trcMotMarkerGrf/sub10/qtm-05-05.trc
DataRate	CameraRate	NumFrames	NumMarkers	Units	OrigDataRate	OrigDataStartFrame	OrigNumFrames
250.000000	250.000000	7	24	m	250.000000	324	517
Frame#	Time	L.Toe.Tip			R.Toe.Tip			L.Ankle.Lat			R.Ankle.Lat			L.Ankle.Med			R.Ankle.Med			L.Heel			R.Heel			L.Knee.Lat			R.Knee.Lat			L.Knee.Med			R.Knee.Med			L.Thigh.Upper			R.Thigh.Upper			L.ASIS			R.ASIS			V.Sacral			L.Acromium			R.Acromium			C7			L.Elbow			R.Elbow			L.Wrist.Lat			R.Wrist.Lat
		X1	Y1	Z1	X2	Y2	Z2	X3	Y3	Z3	X4	Y4	Z4	X5	Y5	Z5	X6	Y6	Z6	X7	Y7	Z7	X8	Y8	Z8	X9	Y9	Z9	X10	Y10	Z10	X11	Y11	Z11	X12	Y12	Z12	X13	Y13	Z13	X14	Y14	Z14	X15	Y15	Z15	X16	Y16	Z16	X17	Y17	Z17	X18	Y18	Z18	X19	Y19	Z19	X20	Y20	Z20	X21	Y21	Z21	X22	Y22	Z22	X23	Y23	Z23	X24	Y24	Z24

324	1.292	0.009934977	-0.056798512	-0.09066512	0.88633642	0.042262638	0.047114143	-0.077512941	0.045235369	-0.12837419	0.74915172	0.056220921	0.099917981	-0.054664781	0.059957592	-0.049267882	0.75804471	0.07703122	0.011487217	-0.1403177	0.060473851	-0.083803074	0.69545384	0.028452365	0.061672888	0.13951338	0.36621629	-0.15899863	0.67202562	0.44117877	0.091043917	0.15745381	0.33038206	-0.041504496	0.65874401	0.4351957	-0.034977436	0.27281781	0.73232756	-0.19726721	0.44511956	0.75881884	0.16161341	0.37334032	0.82357353	-0.16793344	0.47485022	0.83463488	0.058796568	0.24709245	0.8541509	0.030620927	0.47272914	1.295528	-0.18464794	0.46576306	1.297944	0.12534654	0.39329109	1.3308022	-0.032768228	0.47749757	0.94510419	-0.25446896	0.22896005	1.0418197	0.14662131	0.71608032	0.93770835	-0.17858594	0.17197724	0.86519981	0.2997595
325	1.296	0.011196325	-0.05677726	-0.090736519	0.88691959	0.041555833	0.047598775	-0.073410872	0.047574425	-0.12930253	0.74933689	0.056321672	0.099721703	-0.049977041	0.061712092	-0.050264311	0.75857742	0.076707913	0.01125006	-0.13541377	0.064136083	-0.084203992	0.69568469	0.028575718	0.061545078	0.14594145	0.36719329	-0.15907096	0.67785291	0.44292227	0.090494576	0.16345009	0.33105238	-0.041554496	0.66302442	0.43658172	-0.035750283	0.28054893	0.73220139	-0.19715889	0.45101682	0.76032212	0.16234566	0.38131601	0.82343794	-0.16705245	0.48160357	0.83572499	0.060052405	0.25408432	0.85560652	0.029786323	0.48131925	1.2966369	-0.1833207	0.47329556	1.2989415	0.12638808	0.40116936	1.3317507	-0.031659816	0.48299616	0.94564633	-0.25397165	0.23703526	1.0422518	0.14687383	0.7207556	0.93616099	-0.17763522	0.17982972	0.8662357	0.30090437
326	1.3	0.012590385	-0.056804789	-0.090858733	0.8873869	0.041022821	0.047764915	-0.069035486	0.049832506	-0.13029928	0.74948152	0.056456083	0.099491285	-0.045015749	0.063385545	-0.05131778	0.75887496	0.076429601	0.011027695	-0.13014553	0.067786671	-0.084659594	0.69591247	0.028709693	0.061455912	0.15259475	0.36810955	-0.15924783	0.6837942	0.44460532	0.089953916	0.16967361	0.33163294	-0.04167271	0.66743989	0.43813252	-0.036594066	0.28834246	0.73204939	-0.19696825	0.45676659	0.76201989	0.16293232	0.38928925	0.82331542	-0.1661267	0.4883806	0.83689274	0.061290675	0.26093398	0.85710364	0.028928543	0.48991469	1.2977544	-0.1819673	0.4807967	1.2999742	0.12744715	0.40901364	1.3327677	-0.030583659	0.4883778	0.9463682	-0.25344624	0.24512644	1.0425598	0.14713945	0.72537895	0.9345024	-0.17670909	0.1876767	0.86725358	0.30209506
327	1.304	0.014114957	-0.056900341	-0.091015434	0.88791493	0.040628503	0.047584469	-0.06436886	0.051973455	-0.13133834	0.74970191	0.05659443	0.099235431	-0.039798945	0.064965647	-0.052428285	0.75908137	0.076211721	0.010811632	-0.12448574	0.071420049	-0.085176868	0.69616958	0.028857554	0.061407751	0.15949523	0.36895429	-0.159555	0.68962344	0.44617193	0.089343031	0.17613701	0.33211594	-0.041871958	0.67203382	0.43982408	-0.03748114	0.29619209	0.7318904	-0.19669661	0.46247933	0.76390791	0.1634338	0.39724717	0.82322209	-0.16515529	0.49516657	0.83811978	0.062500135	0.26747371	0.85876645	0.028138614	0.49849001	1.2988654	-0.1805958	0.48826087	1.3010378	0.12851679	0.41679697	1.3338364	-0.02953939	0.49344227	0.94736194	-0.25265838	0.25330404	1.0427382	0.14747985	0.72994593	0.93273252	-0.17579466	0.19557107	0.86822882	0.30333681
328	1.308	0.015744585	-0.057067662	-0.09118227	0.88851895	0.040314037	0.047228602	-0.059407399	0.053978699	-0.13239849	0.75001047	0.056719227	0.09897117	-0.034345995	0.066449485	-0.053589073	0.7593002	0.076047243	0.010591621	-0.1184882	0.075022889	-0.085761023	0.69643831	0.028995171	0.061374946	0.16661552	0.36973385	-0.15995668	0.69527599	0.44761483	0.08867659	0.18285954	0.33251085	-0.042145639	0.67677194	0.4416301	-0.03835272	0.30408981	0.73175678	-0.19640498	0.46823185	0.76597038	0.16390112	0.40517945	0.82317201	-0.16414228	0.50196979	0.83941398	0.063688023	0.27363166	0.86063802	0.027456506	0.50701617	1.2999646	-0.17921158	0.49567255	1.3021255	0.12958282	0.42449804	1.3349419	-0.028528099	0.49768393	0.94867449	-0.25121929	0.26159162	1.0428999	0.14797416	0.7344476	0.93085046	-0.17488678	0.2035831	0.86914544	0.30463605
329	1.312	0.017432554	-0.057289173	-0.091345843	0.88910342	0.040054204	0.046934521	-0.054166005	0.055852162	-0.1334799	0.7503373	0.056823382	0.098727934	-0.028661425	0.067850403	-0.054774322	0.75956291	0.075917953	0.010383672	-0.11225806	0.078580367	-0.08643193	0.69668991	0.029100112	0.061333356	0.17389288	0.37046239	-0.16036903	0.70079356	0.44892629	0.08800813	0.18984793	0.33282539	-0.042491437	0.68156886	0.44351195	-0.039131909	0.31202077	0.73167437	-0.19617592	0.47401658	0.76817455	0.16434289	0.4130736	0.82317284	-0.16309248	0.50880515	0.84081341	0.064866327	0.27959242	0.86262688	0.026814051	0.51547169	1.3010557	-0.17781599	0.50300741	1.3032333	0.13063415	0.43210464	1.3360766	-0.02754653	0.50035868	0.95034642	-0.24874102	0.26998784	1.0431178	0.14864456	0.73888528	0.92884956	-0.17399081	0.21172392	0.86999957	0.30599867
330	1.316	0.019124334	-0.057526509	-0.091513043	0.889591	0.039839047	0.046851161	-0.048673476	0.057618276	-0.13459575	0.75058562	0.056906286	0.098535488	-0.022753239	0.069193034	-0.055950737	0.75985819	0.075812979	0.010220197	-0.10586613	0.082097135	-0.087219705	0.69690972	0.0291653	0.061284973	0.18131117	0.37113652	-0.1607329	0.70623014	0.45008078	0.087375159	0.19709168	0.33305183	-0.042923028	0.68638205	0.44541	-0.039762842	0.31996262	0.73163548	-0.19604841	0.47983014	0.77048178	0.16476887	0.4209151	0.82322809	-0.16200822	0.51564061	0.8423432	0.066025465	0.28561894	0.86464779	0.026131242	0.52383996	1.3021366	-0.1764123	0.51024901	1.3043604	0.13166553	0.4396087	1.3372358	-0.026584394	0.50088761	0.95248514	-0.24506608	0.27852881	1.0433576	0.14943723	0.74327194	0.92672545	-0.17311626	0.21995277	0.87079196	0.30742657
